<svg width="20" height="20" viewBox="0 0 20 20" fill="none" xmlns="http://www.w3.org/2000/svg">
<path d="M0.5 6.5C0.5 4.567 2.04665 3 3.95455 3H16.0455C17.9533 3 19.5 4.567 19.5 6.5V13.5C19.5 15.433 17.9533 17 16.0455 17H3.95455C2.04665 17 0.5 15.433 0.5 13.5V6.5Z" fill="#0950FF"/>
<path d="M11.6068 7.46845C12.1847 8.06142 12.1847 9.02274 11.598 9.60672C11.0112 10.1907 10.0599 10.1907 9.48206 9.59774C8.8953 8.99579 8.8953 8.04345 9.48206 7.45049C9.76655 7.17197 10.1488 7.01025 10.54 7.01025C10.9401 7.01025 11.3224 7.17197 11.6068 7.46845ZM9.60653 8.53759C9.60653 9.06766 10.0244 9.48094 10.54 9.48094C11.0645 9.48094 11.4735 9.05868 11.4735 8.53759C11.4735 8.00751 11.0556 7.59423 10.54 7.59423C10.0244 7.59423 9.60653 8.00751 9.60653 8.53759Z" fill="white"/>
<path d="M4.72674 7.00118C4.56671 7.00118 4.45114 7.12696 4.44225 7.28868V7.3336C3.79326 6.80352 2.842 6.92032 2.32636 7.57618C1.81072 8.23203 1.91741 9.19335 2.5664 9.71444C3.10871 10.1547 3.88216 10.1547 4.43336 9.71444V9.99296H5.00234L5.01123 7.00118H4.72674ZM3.49988 9.47187C2.97535 9.47187 2.5664 9.0496 2.5664 8.52851C2.5664 7.99844 2.98424 7.58516 3.49988 7.57618C4.01552 7.56719 4.43336 7.99844 4.43336 8.51953V8.52851C4.43336 9.04062 4.00663 9.47187 3.49988 9.47187Z" fill="white"/>
<path d="M14.0713 7.01904C13.7245 7.01904 13.3956 7.13584 13.1289 7.35146V7.30654V7.01904H12.8444C12.6844 7.01904 12.5599 7.14482 12.5599 7.30654L12.551 10.0108H13.12V8.53739C13.12 8.0163 13.5378 7.59404 14.0535 7.59404C14.2135 7.59404 14.338 7.46826 14.338 7.31553V7.30654V7.01904H14.0713Z" fill="white"/>
<path d="M17.1906 7.02832C17.0306 7.02832 16.915 7.1541 16.9061 7.31582V7.36074C16.2571 6.83965 15.3059 6.94746 14.7902 7.6123C14.2746 8.26816 14.3813 9.22948 15.0303 9.75057C15.5726 10.1908 16.346 10.1908 16.8972 9.75057V10.0291H17.4662L17.4751 7.02832H17.1906ZM15.9637 9.49901C15.4392 9.49901 15.0303 9.07675 15.0303 8.55565C15.0303 8.02558 15.4481 7.6123 15.9637 7.6123C16.4883 7.6123 16.8972 8.03456 16.8972 8.55565V8.56464C16.8972 9.06776 16.4794 9.49901 15.9637 9.49901Z" fill="white"/>
<path d="M8.23889 7.00997H8.20333C8.06109 7.03692 7.9544 7.15372 7.9544 7.30645V7.34239C7.30541 6.81231 6.36304 6.92911 5.84741 7.58496C5.33177 8.24082 5.43845 9.20214 6.09633 9.72323C6.63864 10.1635 7.4121 10.1635 7.96329 9.72323V9.77714C7.94551 10.2982 7.52767 10.7025 7.01203 10.6846C6.94091 10.6846 6.88757 10.6756 6.81645 10.6576C6.69198 10.6306 6.54974 10.6935 6.4964 10.8193L6.37193 11.1068C7.10983 11.4752 8.00775 11.1697 8.37225 10.424C8.47004 10.2264 8.52338 10.0107 8.52338 9.79511L8.53227 7.00997H8.23889ZM7.02092 9.47167C6.4964 9.47167 6.08744 9.04941 6.08744 8.52832C6.08744 7.99824 6.50529 7.58496 7.02092 7.58496C7.54545 7.58496 7.9544 8.00723 7.9544 8.52832V8.5373C7.94551 9.04941 7.53656 9.48066 7.02092 9.47167Z" fill="white"/>
<path d="M16.4883 14H10.025C9.18933 14 8.51367 13.3172 8.51367 12.4726C8.51367 11.6281 9.18933 10.9453 10.025 10.9453H16.4883C17.3239 10.9453 17.9996 11.6281 17.9996 12.4726C17.9996 13.3172 17.3239 14 16.4883 14Z" fill="white"/>
<path d="M11.9339 11.5381C12.1206 11.5381 12.2717 11.601 12.3962 11.7178C12.5206 11.8436 12.5829 11.9963 12.5829 12.185C12.5829 12.3736 12.5206 12.5264 12.3962 12.6521C12.2717 12.7779 12.1206 12.8318 11.9339 12.8318H11.6938V13.3889H11.2227V11.5381H11.9339ZM11.9339 12.3916C12.0406 12.3916 12.1206 12.3107 12.1206 12.1939C12.1206 12.0771 12.0406 11.9963 11.9339 11.9963H11.6938V12.3916H11.9339Z" fill="#0950FF"/>
<path d="M13.7743 13.3889L13.6943 13.1193H13.0809L13.0009 13.3889H12.4941L13.0987 11.5381H13.6677L14.2722 13.3889H13.7743ZM13.2054 12.715H13.5699L13.3832 12.0861L13.2054 12.715Z" fill="#0950FF"/>
<path d="M15.7215 11.5381L15.1081 12.6791V13.3889H14.6369V12.6791L14.0234 11.5381H14.548L14.868 12.2209L15.197 11.5381H15.7215Z" fill="#0950FF"/>
</svg>
