<svg width="20" height="20" viewBox="0 0 20 20" fill="none" xmlns="http://www.w3.org/2000/svg">
<path d="M0.5 6.5C0.5 4.567 2.04665 3 3.95455 3H16.0455C17.9533 3 19.5 4.567 19.5 6.5V13.5C19.5 15.433 17.9533 17 16.0455 17H3.95455C2.04665 17 0.5 15.433 0.5 13.5V6.5Z" fill="#CD0B0F"/>
<path d="M9.26768 10.7834C9.25843 12.0328 8.2481 13.0129 6.97592 12.9999C5.74343 12.9882 4.73045 11.9834 4.75029 10.7326C4.7688 9.53394 5.795 8.54869 7.03279 8.55911C8.27058 8.56952 9.27694 9.57038 9.26768 10.7834ZM8.01535 10.7808C8.01535 10.2342 7.5644 9.78904 7.01163 9.79034C6.45225 9.79164 6.0013 10.2355 6.00262 10.7847C6.00394 11.3287 6.45357 11.7686 7.01163 11.7699C7.56705 11.7699 8.01535 11.3274 8.01535 10.7808Z" fill="white"/>
<path d="M12.2369 12.9987C12.2307 12.9662 12.2195 12.9323 12.2195 12.8998C12.2183 12.1384 12.2183 11.377 12.2183 10.6143C12.2183 10.436 12.191 10.2642 12.0892 10.1145C11.9267 9.87897 11.6934 9.8204 11.434 9.83732C11.0791 9.86075 10.8136 10.1341 10.7962 10.492C10.7912 10.5232 10.7813 10.5545 10.7813 10.5857C10.7788 10.8798 10.7776 11.174 10.7776 11.4668C10.7776 11.9705 10.7788 12.4755 10.7801 12.9792C10.7739 12.9857 10.7677 12.9909 10.7615 12.9974C10.3718 12.9974 9.98219 12.9987 9.59254 12.9987C9.58634 12.9714 9.57393 12.944 9.57393 12.9167C9.57269 11.0061 9.57269 9.09416 9.57393 7.18354C9.57393 7.15881 9.5851 7.13408 9.59006 7.10935C9.6186 7.11065 9.6459 7.11195 9.67444 7.11195C10.0417 7.11325 10.4091 7.11456 10.7776 7.11586C10.7764 7.12106 10.7764 7.12497 10.7801 7.12887C10.7788 7.14189 10.7764 7.1549 10.7764 7.16922C10.7764 7.81086 10.7764 8.45251 10.7764 9.09416C10.7764 9.11368 10.7801 9.1332 10.7826 9.15273C10.7875 9.15403 10.7912 9.15403 10.7962 9.15533C10.8024 9.13971 10.8086 9.12539 10.8148 9.10978C11.3348 8.56444 12.2716 8.55012 12.7953 8.9562C13.1427 9.22561 13.3252 9.59524 13.3922 10.0325C13.412 10.1627 13.4207 10.2955 13.4219 10.4282C13.4244 11.2547 13.4232 12.0811 13.4219 12.9089C13.4219 12.9388 13.4033 12.9701 13.3946 13C13.0087 12.9987 12.6228 12.9987 12.2369 12.9987Z" fill="white"/>
<path d="M14.4918 11.4043C14.9149 11.4069 15.2537 11.7675 15.25 12.2139C15.2462 12.6447 14.8988 13.0026 14.4831 13C14.0686 12.9974 13.7286 12.6369 13.7286 12.2022C13.7299 11.7596 14.0724 11.4017 14.4918 11.4043Z" fill="white"/>
<path d="M14.94 11.0191C14.935 11.0243 14.9288 11.0295 14.9238 11.0347C14.868 11.049 14.8121 11.0751 14.7563 11.0777C14.5776 11.0829 14.3977 11.0816 14.219 11.079C14.1718 11.0777 14.1247 11.0621 14.0775 11.053C14.0614 11.0386 14.0453 11.023 14.0291 11.0087C14.0205 10.9957 14.0105 10.984 14.0018 10.971C13.9708 10.7419 13.9386 10.5128 13.9088 10.2825C13.8629 9.93495 13.8194 9.58745 13.7748 9.23994C13.7698 9.2048 13.7698 9.16966 13.7698 9.13452C13.7698 8.50459 13.7698 7.87596 13.7698 7.24602C13.7698 7.20568 13.7772 7.16663 13.7822 7.12628C13.8331 7.03127 13.9113 6.99874 14.013 7.00004C14.3319 7.00394 14.6508 7.00004 14.9697 7.00264C15.0219 7.00264 15.074 7.02216 15.1261 7.03258C15.1869 7.08724 15.2092 7.15622 15.208 7.24082C15.2055 7.87856 15.213 8.5163 15.2043 9.15404C15.2018 9.36359 15.1596 9.57183 15.1335 9.78137C15.0901 10.1289 15.0467 10.4777 14.9995 10.8252C14.9921 10.8851 14.9697 10.9436 14.9536 11.0022C14.9486 11.0074 14.9449 11.0139 14.94 11.0191Z" fill="white"/>
</svg>
